<svg width="124" height="35" viewBox="0 0 124 35" fill="none" xmlns="http://www.w3.org/2000/svg">
<path d="M20.3673 33.6094H12.0001L8.01086e-05 0H7.50008L15.2345 22.9922C15.7501 24.6641 16.0704 25.7109 16.1954 26.1328C16.3204 25.7109 16.6407 24.6641 17.1563 22.9922L24.8673 0H32.3673L20.3673 33.6094ZM53.3916 22.2891V23.3438H35.7901C35.9307 24.9531 36.5323 26.25 37.5948 27.2344C38.6729 28.2188 39.9541 28.7109 41.4385 28.7109C42.7979 28.7109 43.9541 28.3906 44.9073 27.75C45.8604 27.0938 46.4854 26.2188 46.7823 25.125H53.2041C52.626 28.0312 51.3057 30.2891 49.2432 31.8984C47.1963 33.4922 44.5948 34.2891 41.4385 34.2891C39.0166 34.2891 36.8604 33.7344 34.9698 32.625C33.0791 31.5156 31.626 30.0156 30.6104 28.125C29.6104 26.2188 29.1104 24.0938 29.1104 21.75C29.1104 19.3438 29.6651 17.1797 30.7745 15.2578C31.8995 13.3359 33.3916 11.8516 35.251 10.8047C37.126 9.75781 39.1729 9.23438 41.3916 9.23438C45.1729 9.23438 48.1182 10.3594 50.2276 12.6094C52.337 14.8594 53.3916 18.0859 53.3916 22.2891ZM41.5088 14.4141C40.2901 14.4141 39.1963 14.7656 38.2276 15.4688C37.2588 16.1719 36.5557 17.1172 36.1182 18.3047H47.1104C46.751 17.0859 46.0948 16.1328 45.1416 15.4453C44.2041 14.7578 42.9932 14.4141 41.5088 14.4141ZM62.9785 33.6094H56.252V9.89062H62.5098V13.5938C63.0098 12.3281 63.9316 11.2891 65.2754 10.4766C66.6348 9.64844 68.2051 9.23438 69.9863 9.23438C72.3457 9.23438 74.2285 9.98438 75.6348 11.4844C77.0566 12.9844 77.7676 15.0625 77.7676 17.7188V33.6094H71.041V19.3125C71.041 18.0625 70.6504 17.0625 69.8691 16.3125C69.1035 15.5625 68.1504 15.1875 67.0098 15.1875C65.8691 15.1875 64.9082 15.5625 64.127 16.3125C63.3613 17.0625 62.9785 18.0625 62.9785 19.3125V33.6094ZM91.9248 34.2891C89.7373 34.2891 87.7529 33.7344 85.9716 32.625C84.206 31.5 82.8232 29.9844 81.8232 28.0781C80.8388 26.1562 80.3466 24.0469 80.3466 21.75C80.3466 19.4531 80.8466 17.3516 81.8466 15.4453C82.8466 13.5391 84.2451 12.0312 86.042 10.9219C87.8545 9.79688 89.8779 9.23438 92.1123 9.23438C93.706 9.23438 95.0966 9.48438 96.2841 9.98438C97.4716 10.4688 98.4013 11.1094 99.0732 11.9062V0H105.8V33.6094H99.542V30.7266C97.7607 33.1016 95.2216 34.2891 91.9248 34.2891ZM88.8545 26.2969C90.0576 27.4531 91.542 28.0312 93.3076 28.0312C95.0732 28.0312 96.5498 27.4531 97.7373 26.2969C98.9404 25.125 99.542 23.6094 99.542 21.75C99.542 19.8906 98.9404 18.3828 97.7373 17.2266C96.5498 16.0547 95.0732 15.4688 93.3076 15.4688C91.542 15.4688 90.0576 16.0547 88.8545 17.2266C87.667 18.3828 87.0732 19.8906 87.0732 21.75C87.0732 23.6094 87.667 25.125 88.8545 26.2969ZM120.801 9.89062H123.73V16.2891H120.168C117.605 16.2891 116.324 17.5703 116.324 20.1328V33.6094H109.598V9.89062H115.855V14.3203C116.105 12.8203 116.684 11.7109 117.59 10.9922C118.512 10.2578 119.582 9.89062 120.801 9.89062Z" fill="white"/>
</svg>
